<svg xmlns="http://www.w3.org/2000/svg" width="83.579" height="76" viewBox="0 0 83.579 76">
  <g id="building" transform="translate(-30.039 -28.135)">
    <g id="Сгруппировать_724" data-name="Сгруппировать 724" transform="translate(52.124 28.135)">
      <g id="Сгруппировать_723" data-name="Сгруппировать 723">
        <path id="Контур_237" data-name="Контур 237" d="M167.026,95.079H134.671a2.729,2.729,0,0,0-2.632,2.711v73.289h37.675V97.79A2.778,2.778,0,0,0,167.026,95.079Zm-24.811,61.692a1.732,1.732,0,0,1-3.464,0V150.04a1.732,1.732,0,0,1,3.464,0Zm0-21.034a1.732,1.732,0,1,1-3.464,0v-6.731a1.732,1.732,0,0,1,3.464,0Zm0-21.034a1.732,1.732,0,1,1-3.464,0v-6.731a1.732,1.732,0,0,1,3.464,0Zm10.61,42.067a1.732,1.732,0,0,1-3.464,0V150.04a1.732,1.732,0,1,1,3.464,0Zm0-21.034a1.732,1.732,0,1,1-3.464,0v-6.731a1.732,1.732,0,0,1,3.464,0Zm0-21.034a1.732,1.732,0,1,1-3.464,0v-6.731a1.732,1.732,0,1,1,3.464,0Zm10.393,42.067a1.732,1.732,0,0,1-3.464,0V150.04a1.732,1.732,0,1,1,3.464,0Zm0-21.034a1.732,1.732,0,1,1-3.464,0v-6.731a1.732,1.732,0,1,1,3.464,0Zm0-21.034a1.732,1.732,0,1,1-3.464,0v-6.731a1.732,1.732,0,1,1,3.464,0Z" transform="translate(-132.039 -95.079)" fill="#6b92b0"/>
      </g>
    </g>
    <g id="Сгруппировать_726" data-name="Сгруппировать 726" transform="translate(30.039 63.428)">
      <g id="Сгруппировать_725" data-name="Сгруппировать 725">
        <path id="Контур_238" data-name="Контур 238" d="M32.671,258.077a2.585,2.585,0,0,0-2.632,2.537s0,0,0,.007v38.162H48.66V258.077Zm9.867,31.18H36.649a1.732,1.732,0,1,1,0-3.464h5.889a1.732,1.732,0,1,1,0,3.464Zm0-10.61H36.649a1.732,1.732,0,1,1,0-3.464h5.889a1.732,1.732,0,1,1,0,3.464Zm0-10.393H36.649a1.732,1.732,0,1,1,0-3.464h5.889a1.732,1.732,0,1,1,0,3.464Z" transform="translate(-30.039 -258.077)" fill="#6b92b0"/>
      </g>
    </g>
    <g id="Сгруппировать_728" data-name="Сгруппировать 728" transform="translate(93.264 46.106)">
      <g id="Сгруппировать_727" data-name="Сгруппировать 727">
        <path id="Контур_239" data-name="Контур 239" d="M339.761,189.555h-7.343a1.626,1.626,0,0,1-1.717-1.619V180.7a2.632,2.632,0,0,0-2.614-2.618H322.04v23.385h11.132a1.732,1.732,0,1,1,0,3.464H322.04v6.929h11.132a1.732,1.732,0,1,1,0,3.464H322.04v7.145h11.132a1.732,1.732,0,1,1,0,3.464H322.04v10.177h20.353V192.266A2.729,2.729,0,0,0,339.761,189.555Z" transform="translate(-322.04 -178.079)" fill="#6b92b0"/>
      </g>
    </g>
  </g>
</svg>
