<svg id="credit-card" xmlns="http://www.w3.org/2000/svg" width="88.839" height="61.077" viewBox="0 0 88.839 61.077">
  <path id="Контур_180" data-name="Контур 180" d="M88.839,31.9V27.217A9.717,9.717,0,0,0,79.122,17.5H9.717A9.717,9.717,0,0,0,0,27.217V31.9a.868.868,0,0,0,.868.868h87.1A.868.868,0,0,0,88.839,31.9Z" transform="translate(0 -17.5)" fill="#6b92b0"/>
  <path id="Контур_181" data-name="Контур 181" d="M0,44.618V74.288a9.717,9.717,0,0,0,9.717,9.717H79.122a9.717,9.717,0,0,0,9.717-9.717V44.618a.868.868,0,0,0-.868-.868H.868A.868.868,0,0,0,0,44.618Zm22.21,22.73a2.776,2.776,0,0,1-2.776,2.776H16.657a2.776,2.776,0,0,1-2.776-2.776V64.572A2.776,2.776,0,0,1,16.657,61.8h2.776a2.776,2.776,0,0,1,2.776,2.776Z" transform="translate(0 -22.928)" fill="#6b92b0"/>
</svg>
