<svg xmlns="http://www.w3.org/2000/svg" width="20.283" height="20.003" viewBox="0 0 20.283 20.003">
    <path id="Объединение_11" data-name="Объединение 11"
          d="M22608.723-618.747a2.522,2.522,0,0,1-2.516-2.521v-11.76a2.522,2.522,0,0,1,2.516-2.521h6.723a.846.846,0,0,1,.842.84.843.843,0,0,1-.842.84h-6.723a.846.846,0,0,0-.84.84v11.76a.846.846,0,0,0,.84.84h11.76a.843.843,0,0,0,.842-.84v-6.718a.837.837,0,0,1,.84-.84.839.839,0,0,1,.84.84v6.718a2.522,2.522,0,0,1-2.521,2.521Zm4.373-6.888a.414.414,0,0,1-.113-.369l.572-2.851a.411.411,0,0,1,.113-.2l6.383-6.383,2.852,2.851-6.383,6.383a.379.379,0,0,1-.205.108l-2.855.574a.354.354,0,0,1-.08.006A.416.416,0,0,1,22613.1-625.635Zm8.313-11.209,1.244-1.249a2.255,2.255,0,0,1,3.18,0,2.242,2.242,0,0,1,.658,1.6,2.216,2.216,0,0,1-.658,1.584l-1.244,1.249Z"
          transform="translate(-22606.207 638.749)" fill="#6b92b0"/>
</svg>