<svg xmlns="http://www.w3.org/2000/svg" width="98.688" height="98.687" viewBox="0 0 98.688 98.687">
  <g id="trusted" transform="translate(0 -0.003)">
    <path id="Контур_217" data-name="Контур 217" d="M11.6,333.045l-11.5,11.5a.355.355,0,0,0,.148.6L14.1,349.343a6.138,6.138,0,0,1,4.092,4.092L22.4,367.28a.355.355,0,0,0,.6.148l15.381-15.381A45.267,45.267,0,0,1,11.6,333.045Z" transform="translate(0 -268.848)" fill="#6b92b0"/>
    <path id="Контур_218" data-name="Контур 218" d="M351.158,344.54l-11.5-11.5a45.269,45.269,0,0,1-26.774,19l15.381,15.381a.355.355,0,0,0,.6-.148l4.206-13.845a6.138,6.138,0,0,1,4.092-4.092l13.845-4.206A.355.355,0,0,0,351.158,344.54Z" transform="translate(-252.579 -268.848)" fill="#6b92b0"/>
    <path id="Контур_219" data-name="Контур 219" d="M130.479,39.375A39.372,39.372,0,1,0,85.057,78.284a39.417,39.417,0,0,0,45.422-38.909ZM60.416,48.97A32.188,32.188,0,0,1,91.107,7.225c24.077,0,39.991,25.876,28.254,47.486C105.812,79.567,68.944,76.094,60.416,48.97Z" transform="translate(-41.763)" fill="#6b92b0"/>
    <path id="Контур_220" data-name="Контур 220" d="M145.562,67.471a26.4,26.4,0,0,0-26.369,26.368c0,21.39,24.251,33.864,41.617,21.5a26.505,26.505,0,0,0,8.7-10.47c8.1-17.441-4.813-37.4-23.949-37.4ZM158.871,90.14l-16.441,12.2A2.889,2.889,0,0,1,138.6,102c-7.359-7.842-6.77-7.216-6.946-7.4a2.892,2.892,0,0,1,.569-4.425s0,0,.006,0a2.891,2.891,0,0,1,3.643.472l5.183,5.522c.5-.376,6.432-4.774,14.589-10.827a2.9,2.9,0,1,1,3.23,4.8Z" transform="translate(-96.219 -54.464)" fill="#6b92b0"/>
  </g>
</svg>
