<svg width="1256" height="352" viewBox="0 0 1256 352" fill="none" xmlns="http://www.w3.org/2000/svg">
<path d="M53 111.715H124.931V139.348H105.274V213.415H72.5139V139.348H53V111.715Z" fill="black"/>
<path d="M219.423 179.657L219.281 182.648H170.14L169.998 184.5C169.998 186.304 170.092 187.776 170.282 188.916C170.472 189.96 170.9 191.1 171.564 192.334C173.369 195.563 176.217 197.177 180.111 197.177C182.579 197.177 184.526 196.512 185.95 195.183C186.9 194.233 187.897 192.572 188.942 190.198L218.853 193.759C216.005 200.026 211.684 205.059 205.892 208.857C198.865 213.415 189.796 215.694 178.686 215.694C166.057 215.694 156.086 211.896 148.774 204.299C142.127 197.367 138.804 189.011 138.804 179.23C138.804 169.164 142.127 160.761 148.774 154.019C156.181 146.422 166.247 142.624 178.971 142.624C192.265 142.624 202.521 146.375 209.737 153.876C216.195 160.618 219.423 169.212 219.423 179.657ZM170.567 169.259H189.084C189.084 167.265 188.372 165.414 186.948 163.704C185.238 161.71 182.817 160.713 179.683 160.713C176.835 160.713 174.556 161.615 172.846 163.419C171.327 165.224 170.567 167.17 170.567 169.259Z" fill="black"/>
<path d="M231.165 143.621H264.496L273.612 156.013L282.3 143.621H315.773L289.992 177.663L317.625 213.415H284.152L273.612 199.171L262.786 213.415H229.171L256.377 177.521L231.165 143.621Z" fill="black"/>
<path d="M575.056 143.621V171.111L591.864 143.621H620.351L598.416 178.375L623.627 213.415H592.291L575.056 186.494V213.415H546.569V143.621H575.056Z" fill="black"/>
<path d="M631.444 178.803C631.444 169.117 634.863 160.761 641.7 153.734C649.296 146.137 659.505 142.339 672.324 142.339C685.143 142.339 695.351 146.137 702.948 153.734C709.785 160.571 713.203 168.927 713.203 178.803C713.203 188.488 709.785 196.845 702.948 203.872C695.351 211.468 685.143 215.267 672.324 215.267C659.505 215.267 649.296 211.468 641.7 203.872C634.863 197.035 631.444 188.678 631.444 178.803ZM661.783 178.803C661.783 182.411 662.638 185.545 664.347 188.204C666.152 190.767 668.81 192.049 672.324 192.049C675.457 192.049 677.974 190.767 679.873 188.204C681.867 185.545 682.864 182.411 682.864 178.803C682.864 175.289 681.962 172.203 680.158 169.544C678.354 166.886 675.742 165.556 672.324 165.556C669.19 165.556 666.626 166.886 664.632 169.544C662.733 172.203 661.783 175.289 661.783 178.803Z" fill="black"/>
<path d="M791.209 213.415L785.511 177.521L776.11 213.415H763.149L752.893 177.521L746.626 213.415H720.987L734.376 143.621H760.585L769.131 173.675L778.104 143.621H803.886L816.847 213.415H791.209Z" fill="black"/>
<path d="M864.929 235.635V212.703C862.08 213.272 859.421 213.557 856.952 213.557C847.551 213.557 840.002 209.807 834.305 202.305C829.272 195.658 826.756 187.586 826.756 178.091C826.756 168.785 829.319 160.761 834.447 154.019C840.145 146.612 847.836 142.909 857.522 142.909C858.472 142.909 859.564 142.956 860.798 143.051C862.127 143.146 863.504 143.336 864.929 143.621V119.549H893.416V143.621L900.68 142.909C910.271 142.909 918.01 146.612 923.898 154.019C929.025 160.571 931.589 168.595 931.589 178.091C931.589 187.491 929.073 195.563 924.04 202.305C918.437 209.807 910.888 213.557 901.393 213.557C899.114 213.557 896.455 213.272 893.416 212.703V235.635H864.929ZM864.929 164.559L862.65 164.274C859.896 164.274 857.759 165.651 856.24 168.405C855.48 169.829 854.911 171.301 854.531 172.82C854.151 174.34 853.961 176.096 853.961 178.091C853.961 181.604 854.673 184.833 856.098 187.776C857.617 190.625 859.753 192.049 862.507 192.049C863.647 192.049 864.454 191.954 864.929 191.765V164.559ZM895.695 192.049C898.259 192.049 900.348 190.672 901.962 187.919C903.482 184.88 904.241 181.604 904.241 178.091C904.241 174.482 903.529 171.301 902.105 168.547C900.68 165.699 898.591 164.274 895.838 164.274C894.698 164.274 893.891 164.369 893.416 164.559V191.765L895.695 192.049Z" fill="black"/>
<path d="M941.217 178.803C941.217 169.117 944.636 160.761 951.473 153.734C959.069 146.137 969.277 142.339 982.096 142.339C994.916 142.339 1005.12 146.137 1012.72 153.734C1019.56 160.571 1022.98 168.927 1022.98 178.803C1022.98 188.488 1019.56 196.845 1012.72 203.872C1005.12 211.468 994.916 215.267 982.096 215.267C969.277 215.267 959.069 211.468 951.473 203.872C944.636 197.035 941.217 188.678 941.217 178.803ZM971.556 178.803C971.556 182.411 972.411 185.545 974.12 188.204C975.924 190.767 978.583 192.049 982.096 192.049C985.23 192.049 987.746 190.767 989.646 188.204C991.64 185.545 992.637 182.411 992.637 178.803C992.637 175.289 991.735 172.203 989.93 169.544C988.126 166.886 985.515 165.556 982.096 165.556C978.963 165.556 976.399 166.886 974.405 169.544C972.506 172.203 971.556 175.289 971.556 178.803Z" fill="black"/>
<path d="M1082.46 142.339C1094.71 142.339 1104.4 145.947 1111.52 153.164C1118.17 160.001 1121.49 168.547 1121.49 178.803C1121.49 188.678 1118.17 197.082 1111.52 204.014C1104.3 211.516 1094.71 215.267 1082.75 215.267C1075.72 215.267 1070.31 214.08 1066.51 211.706V240.193H1038.02V143.621H1066.51V145.9C1066.99 145.615 1067.79 145.283 1068.93 144.903C1070.17 144.428 1071.5 143.953 1072.92 143.478C1075.96 142.719 1079.14 142.339 1082.46 142.339ZM1070.07 178.803C1070.07 182.411 1070.93 185.545 1072.64 188.204C1074.44 190.767 1077.1 192.049 1080.61 192.049C1083.75 192.049 1086.26 190.767 1088.16 188.204C1090.16 185.545 1091.15 182.411 1091.15 178.803C1091.15 175.289 1090.25 172.203 1088.45 169.544C1086.64 166.886 1084.03 165.556 1080.61 165.556C1077.48 165.556 1074.92 166.886 1072.92 169.544C1071.02 172.203 1070.07 175.289 1070.07 178.803Z" fill="black"/>
<path d="M1133.34 143.478H1201V169.117H1181.34V213.415H1152.86V169.117H1133.34V143.478Z" fill="black"/>
<mask id="mask0_11_197" style="mask-type:alpha" maskUnits="userSpaceOnUse" x="65" y="30" width="899" height="285">
<path fill-rule="evenodd" clip-rule="evenodd" d="M517.024 97.3862C516.803 99.079 517.261 100.791 518.299 102.146C518.798 102.822 519.429 103.39 520.152 103.817C520.875 104.244 521.677 104.521 522.51 104.631C523.343 104.742 524.189 104.683 524.999 104.459C525.809 104.236 526.565 103.851 527.223 103.329C543.006 91.7264 559.854 81.6466 577.54 73.2247C616.614 54.623 659.112 44.3006 702.365 42.9055C703.206 42.8874 704.035 42.7031 704.804 42.3631C705.574 42.0231 706.268 41.5342 706.848 40.9245C707.428 40.3149 707.881 39.5966 708.182 38.811C708.483 38.0253 708.625 37.188 708.601 36.3471V36.2396C708.573 35.3923 708.378 34.5588 708.028 33.7867C707.678 33.0146 707.179 32.3191 706.56 31.74C705.941 31.1609 705.214 30.7094 704.42 30.4115C703.627 30.1136 702.782 29.975 701.935 30.0037C636.174 32.0497 572.586 54.0206 519.59 93.0074L519.482 93.1149C518.13 94.1574 517.246 95.6933 517.024 97.3862ZM537.437 126.875C537.074 126.105 536.867 125.272 536.828 124.423C536.789 123.574 536.917 122.725 537.207 121.926C537.497 121.126 537.942 120.392 538.516 119.765C539.091 119.139 539.784 118.632 540.555 118.273H540.662C596.635 92.8294 656.365 76.6351 717.524 70.3217C799.177 62.143 881.635 71.415 959.433 97.523C960.238 97.7902 960.983 98.2138 961.624 98.7694C962.266 99.325 962.792 100.002 963.171 100.761C963.551 101.52 963.777 102.346 963.836 103.193C963.896 104.039 963.788 104.889 963.518 105.694V105.802C962.957 107.409 961.783 108.729 960.252 109.474C958.721 110.219 956.958 110.329 955.347 109.78C879.287 84.215 798.657 75.1259 718.814 83.116C659.036 89.2503 600.649 105.045 545.93 129.885C544.402 130.591 542.658 130.671 541.071 130.109C539.484 129.546 538.18 128.386 537.437 126.875ZM492.065 160.957L500.452 158.592C500.841 158.511 501.237 158.475 501.634 158.484C501.914 158.569 502.174 158.71 502.398 158.898C502.621 159.087 502.804 159.319 502.935 159.581C503.066 159.842 503.142 160.128 503.159 160.42C503.175 160.712 503.132 161.005 503.032 161.279L500.129 169.451C497.956 175.539 494.553 181.115 490.133 185.831C485.712 190.548 480.368 194.304 474.433 196.867C453.898 205.683 432.395 198.587 420.138 189.986C417.991 188.516 415.976 186.861 414.117 185.04V186.545C414.117 190.738 412.074 194.071 409.494 194.071H407.774C405.193 194.071 403.151 190.738 403.151 186.545V171.601C393.233 179.825 384.702 189.59 377.885 200.522C371.625 210.648 366.948 221.67 364.015 233.207L361.865 241.593C361.719 242.045 361.46 242.452 361.112 242.776C360.889 242.978 360.627 243.134 360.342 243.233C360.057 243.332 359.755 243.373 359.454 243.353C359.153 243.333 358.859 243.252 358.59 243.116C358.321 242.98 358.082 242.791 357.887 242.561L352.296 236.002C349.217 232.395 346.715 228.333 344.878 223.961C341.651 216.446 340.465 208.213 341.437 200.092C344.125 177.944 360.897 162.677 374.552 156.441C378.167 154.806 381.953 153.58 385.841 152.786L379.82 149.345C376.164 147.302 374.337 143.862 375.627 141.604L376.487 140.099C377.777 137.841 381.755 137.734 385.303 139.776L399.065 147.733C395.478 126.433 384.702 107.005 368.531 92.6849L362.295 87.2017C361.941 86.7988 361.684 86.3209 361.542 85.804C361.465 85.4789 361.454 85.1415 361.511 84.8122C361.567 84.4828 361.689 84.1681 361.87 83.8871C362.05 83.606 362.286 83.3643 362.562 83.1764C362.838 82.9885 363.15 82.8583 363.478 82.7935L371.541 81.0733C377.67 79.7831 393.474 77.7403 407.989 87.5242C425.836 99.5659 429.814 120.424 427.772 134.723C427.472 136.941 427.004 139.134 426.374 141.282L428.847 139.884C432.395 137.841 436.373 137.949 437.663 140.206L438.523 141.712C439.813 143.862 437.878 147.41 434.33 149.453L419.6 157.946C431.531 162.354 444.09 164.822 456.801 165.257C468.707 165.659 480.604 164.208 492.065 160.957ZM400.57 98.8133C399.327 98.015 398.034 97.2968 396.7 96.663C396.301 96.4707 395.854 96.3988 395.415 96.4561C394.976 96.5133 394.563 96.6973 394.227 96.9855C393.951 97.1775 393.718 97.4235 393.541 97.7086C393.363 97.9938 393.246 98.312 393.196 98.644C393.145 98.9759 393.163 99.3147 393.248 99.6395C393.333 99.9644 393.483 100.269 393.689 100.534C400.774 110.507 406.151 121.589 409.602 133.326C409.716 133.802 409.973 134.232 410.337 134.558C410.702 134.885 411.158 135.092 411.644 135.153C411.976 135.204 412.315 135.188 412.641 135.107C412.966 135.026 413.273 134.881 413.543 134.681C413.812 134.482 414.04 134.231 414.212 133.942C414.385 133.654 414.499 133.335 414.547 133.003V132.895C415.499 126.039 414.57 119.052 411.859 112.683C409.509 107.07 405.589 102.254 400.57 98.8133ZM366.488 193.749C371.197 186.149 376.673 179.051 382.83 172.568C383.129 172.239 383.328 171.832 383.404 171.394C383.48 170.957 383.43 170.506 383.26 170.096C382.998 169.559 382.536 169.147 381.974 168.946C381.411 168.745 380.793 168.772 380.25 169.02C368.961 174.181 356.704 186.438 354.876 202.028C354.695 203.598 354.623 205.178 354.661 206.758C354.683 207.263 354.874 207.746 355.202 208.13C355.531 208.514 355.979 208.776 356.474 208.875C356.97 208.974 357.484 208.904 357.935 208.676C358.386 208.449 358.748 208.076 358.962 207.618C361.216 202.862 363.729 198.231 366.488 193.749ZM469.38 184.718C470.867 184.073 472.305 183.318 473.68 182.46C474.021 182.242 474.3 181.939 474.488 181.581C474.677 181.223 474.769 180.822 474.756 180.417C474.696 179.819 474.402 179.27 473.939 178.887C473.476 178.505 472.881 178.32 472.283 178.374C467.028 178.84 461.75 178.983 456.478 178.804C447.524 178.5 438.625 177.276 429.922 175.149C429.487 175.026 429.025 175.042 428.6 175.197C428.176 175.351 427.81 175.635 427.556 176.009C427.38 176.242 427.251 176.507 427.177 176.79C427.103 177.073 427.086 177.367 427.126 177.657C427.166 177.947 427.262 178.225 427.41 178.478C427.558 178.73 427.754 178.95 427.987 179.127L428.094 179.234C438.308 186.438 454.973 190.846 469.38 184.718ZM366.703 136.658C365.413 138.916 361.435 139.024 357.887 136.981L342.297 128.057C338.642 126.015 336.814 122.574 338.104 120.316L338.964 118.811C340.254 116.553 344.232 116.446 347.78 118.488L363.37 127.412C367.026 129.455 368.853 132.895 367.563 135.153L366.703 136.658ZM447.984 136.766C449.275 139.024 453.253 139.131 456.801 137.088L472.39 128.165C475.938 126.122 477.874 122.574 476.583 120.424L475.723 118.918C474.433 116.661 470.455 116.553 466.907 118.596L451.317 127.52C447.769 129.562 445.834 133.11 447.124 135.261L447.984 136.766ZM407.881 207.296H409.602C412.182 207.296 414.225 210.736 414.225 214.822V232.777C414.225 236.97 412.182 240.303 409.602 240.303H407.881C405.301 240.303 403.258 236.97 403.258 232.777V214.822C403.258 210.629 405.301 207.296 407.881 207.296ZM240.373 280.943C214.095 280.793 188.268 274.105 165.22 261.483C164.565 261.136 163.986 260.662 163.516 260.088C163.047 259.514 162.696 258.852 162.486 258.141C162.276 257.43 162.21 256.684 162.291 255.947C162.373 255.211 162.601 254.497 162.962 253.85C162.962 253.796 162.989 253.769 163.016 253.742C163.043 253.715 163.07 253.688 163.07 253.635C163.828 252.399 165.029 251.5 166.428 251.12C167.826 250.741 169.317 250.909 170.596 251.592C187.153 260.731 216.827 272.665 253.597 269.117C276.074 266.903 297.704 259.386 316.709 247.184C317.929 246.4 319.405 246.118 320.829 246.399C322.252 246.68 323.511 247.5 324.342 248.689C324.776 249.292 325.085 249.977 325.249 250.702C325.414 251.426 325.432 252.177 325.302 252.909C325.171 253.64 324.896 254.339 324.491 254.962C324.086 255.585 323.56 256.121 322.944 256.538C322.891 256.538 322.864 256.564 322.837 256.591C322.81 256.618 322.783 256.645 322.729 256.645C302.256 269.749 278.971 277.817 254.78 280.191C249.995 280.707 245.186 280.958 240.373 280.943ZM143.18 302.016C162.415 308.966 182.544 313.13 202.958 314.381C250.123 317.419 297.072 305.776 337.352 281.051C337.352 281.022 337.363 280.995 337.383 280.975C337.403 280.955 337.431 280.943 337.459 280.943C338.707 280.111 339.576 278.82 339.878 277.35C340.18 275.881 339.89 274.352 339.072 273.095C338.258 271.859 336.994 270.988 335.55 270.667C334.105 270.346 332.592 270.6 331.331 271.375C309.174 285.128 284.687 294.711 259.081 299.651C205.646 309.972 162.963 297.393 147.05 291.48C120.246 281.393 95.8795 265.747 75.5529 245.571C74.5225 244.523 73.1202 243.924 71.6507 243.904C70.1812 243.884 68.7631 244.444 67.7043 245.464L67.5968 245.571C67.0609 246.086 66.6345 246.703 66.3432 247.387C66.0519 248.071 65.9018 248.806 65.9018 249.549C65.9018 250.292 66.0519 251.028 66.3432 251.711C66.6345 252.395 67.0609 253.012 67.5968 253.527C89.1053 274.82 114.859 291.342 143.18 302.016Z" fill="url(#paint0_linear_11_197)"/>
</mask>
<g mask="url(#mask0_11_197)">
<rect x="34" y="22" width="950" height="352" fill="url(#paint1_linear_11_197)" stroke="black" stroke-width="2"/>
</g>
<defs>
<linearGradient id="paint0_linear_11_197" x1="946.166" y1="82.3239" x2="504.792" y2="62.4357" gradientUnits="userSpaceOnUse">
<stop stop-color="#6BDAE3"/>
<stop offset="0.01" stop-color="#6AD4E5"/>
<stop offset="0.09" stop-color="#67B2EE"/>
<stop offset="0.18" stop-color="#6497F6"/>
<stop offset="0.26" stop-color="#6284FB"/>
<stop offset="0.35" stop-color="#6179FE"/>
<stop offset="0.44" stop-color="#6175FF"/>
<stop offset="0.6" stop-color="#8273D9"/>
<stop offset="0.77" stop-color="#9C72BA"/>
<stop offset="0.9" stop-color="#AC71A7"/>
<stop offset="1" stop-color="#B271A0"/>
</linearGradient>
<linearGradient id="paint1_linear_11_197" x1="34" y1="293.638" x2="840.604" y2="293.638" gradientUnits="userSpaceOnUse">
<stop offset="0.289583" stop-color="#5D63FF"/>
<stop offset="1" stop-color="#44E9FF"/>
</linearGradient>
</defs>
</svg>
