<svg xmlns="http://www.w3.org/2000/svg" width="85.254" height="63.338" viewBox="0 0 85.254 63.338">
  <path id="Вычитание_2" data-name="Вычитание 2" d="M-9088.754,1410.338a16.774,16.774,0,0,1-10.023-3.286,39.817,39.817,0,0,1-9.66,1.145,34.826,34.826,0,0,1-14.062-2.658c-3.756-1.714-5.824-3.993-5.824-6.419v-1.967a4.425,4.425,0,0,1,.418-1.857c.918,2.01,3.348,3.84,6.844,5.152a36.978,36.978,0,0,0,12.625,2.063,42.7,42.7,0,0,0,5.2-.314,17.2,17.2,0,0,1-1.873-4.262c-1.1.086-2.215.129-3.326.129a34.83,34.83,0,0,1-14.062-2.658c-3.756-1.714-5.824-3.993-5.824-6.419v-1.967a4.425,4.425,0,0,1,.418-1.857c.916,2.01,3.348,3.839,6.844,5.152a36.986,36.986,0,0,0,12.625,2.063c.881,0,1.791-.029,2.705-.085a17.077,17.077,0,0,1,1.051-5.069c-1.236.106-2.5.159-3.756.159a34.856,34.856,0,0,1-14.062-2.656c-3.756-1.713-5.824-3.991-5.824-6.417v-1.972a4.458,4.458,0,0,1,.418-1.857c.914,2.011,3.346,3.841,6.844,5.154a37.017,37.017,0,0,0,12.625,2.062,41.019,41.019,0,0,0,7.824-.727,16.956,16.956,0,0,1,10.48-4.79,6.541,6.541,0,0,0,1.166-1.7,4.447,4.447,0,0,1,.412,1.643,16.862,16.862,0,0,1,11.889,5.075,17.047,17.047,0,0,1,4.918,12.029,17.053,17.053,0,0,1-4.98,12.1A16.846,16.846,0,0,1-9088.754,1410.338Zm6.213-16.062c-1.664,0-3.5,1.39-3.607,4.44,0,2.46,1.619,4.462,3.609,4.462s3.605-2,3.605-4.462C-9079.039,1395.665-9080.877,1394.275-9082.541,1394.275Zm-.475-10.047a.953.953,0,0,0-.793.425l-11.488,17.025a.968.968,0,0,0,.254,1.334.955.955,0,0,0,.523.154.959.959,0,0,0,.807-.413l11.488-17.02a.979.979,0,0,0-.254-1.34A.954.954,0,0,0-9083.016,1384.229Zm-12.111,0c-2.465.123-3.588,2.4-3.588,4.462s1.123,4.338,3.588,4.461c1.988,0,3.605-2,3.605-4.461s-1.617-4.462-3.605-4.462Zm-41.986,18.523a34.835,34.835,0,0,1-14.062-2.658c-3.756-1.714-5.826-3.992-5.826-6.415v-1.972a4.47,4.47,0,0,1,.42-1.857c.916,2.011,3.348,3.842,6.844,5.154a37,37,0,0,0,12.625,2.062,42.141,42.141,0,0,0,5.541-.358v2.41a7.237,7.237,0,0,0,.742,3.172A41.362,41.362,0,0,1-9137.113,1402.754Zm54.574-1.5c-.92,0-1.7-1.163-1.7-2.54s.777-2.54,1.7-2.54,1.693,1.163,1.693,2.54S-9081.621,1401.255-9082.539,1401.255Zm-54.574-8.634a34.835,34.835,0,0,1-14.062-2.658c-3.756-1.714-5.826-3.992-5.826-6.415v-1.967a4.482,4.482,0,0,1,.42-1.863c.918,2.012,3.35,3.844,6.844,5.156a36.974,36.974,0,0,0,12.625,2.064,42.078,42.078,0,0,0,5.541-.364v5.692A43,43,0,0,1-9137.113,1392.621Zm41.986-1.394c-.918,0-1.693-1.161-1.693-2.534s.775-2.54,1.693-2.54,1.693,1.163,1.693,2.54S-9094.209,1391.227-9095.127,1391.227Zm-41.986-8.734a34.826,34.826,0,0,1-14.062-2.658c-3.756-1.714-5.826-3.994-5.826-6.419v-1.967c0-2.425,2.07-4.7,5.826-6.419a34.83,34.83,0,0,1,14.063-2.658,42.141,42.141,0,0,1,5.541.358v19.4A42.078,42.078,0,0,1-9137.113,1382.493Zm28.676-5.238c-10.965,0-19.887-4.072-19.887-9.078v-1.967a4.469,4.469,0,0,1,.418-1.862c.914,2.011,3.346,3.842,6.844,5.156a36.974,36.974,0,0,0,12.625,2.064,36.977,36.977,0,0,0,12.627-2.064c3.5-1.314,5.93-3.145,6.844-5.156a4.469,4.469,0,0,1,.418,1.862v1.967C-9088.549,1373.182-9097.471,1377.255-9108.437,1377.255Zm0-10.133a34.826,34.826,0,0,1-14.062-2.658c-3.756-1.714-5.824-3.993-5.824-6.419v-1.967c0-2.426,2.068-4.705,5.824-6.419a34.83,34.83,0,0,1,14.063-2.658,34.83,34.83,0,0,1,14.063,2.658c3.756,1.715,5.826,3.994,5.826,6.419v1.967c0,2.425-2.07,4.7-5.826,6.419A34.826,34.826,0,0,1-9108.437,1367.121Z" transform="translate(9157.002 -1347)" fill="#6b92b0"/>
</svg>
