<svg xmlns="http://www.w3.org/2000/svg" width="104.578" height="60.992" viewBox="0 0 104.578 60.992">
  <path id="truck" d="M97.893,51.592c-.328-.069-.638-.134-.914-.206-3.125-.813-4.551-1.258-5.606-3.294l-3.995-8.087a9.141,9.141,0,0,0-7.389-4.495H72.878V26.172a3.045,3.045,0,0,0-3.042-3.041l-49.532.05A2.878,2.878,0,0,0,17.441,26.2v2.76H4.752a4.752,4.752,0,0,0,0,9.5H17.441v4.555H9.133a4.752,4.752,0,0,0,0,9.5h8.308v4.555H13.514a4.752,4.752,0,1,0,0,9.5h3.927v4.764a3.045,3.045,0,0,0,3.041,3.041h5.152a11.389,11.389,0,0,0,22.537,0H69.024c.108,0,.219-.007.33-.014a11.389,11.389,0,0,0,22.539.014h7.4a5.289,5.289,0,0,0,5.284-5.283V60.139C104.577,52.995,100.555,52.151,97.893,51.592Zm-17.269,17a4.14,4.14,0,1,1-4.14,4.14A4.145,4.145,0,0,1,80.624,68.595ZM72.878,50.948V39.921h5.435a7.065,7.065,0,0,1,5.622,3.413l3.555,7.2q.113.218.235.417H72.878ZM41.044,72.735a4.141,4.141,0,1,1-4.142-4.14A4.146,4.146,0,0,1,41.044,72.735Z" transform="translate(0 -23.131)" fill="#6b92b0"/>
</svg>
