<svg xmlns="http://www.w3.org/2000/svg" xmlns:xlink="http://www.w3.org/1999/xlink" width="54" height="54" viewBox="0 0 54 54">
  <defs>
    <clipPath id="clip-path">
      <rect id="Прямоугольник_788" data-name="Прямоугольник 788" width="38" height="36" transform="translate(0.337 0.336)" fill="#fff" stroke="#707070" stroke-width="1"/>
    </clipPath>
  </defs>
  <g id="Сгруппировать_771" data-name="Сгруппировать 771" transform="translate(-1589 -5618)">
    <circle id="Эллипс_13" data-name="Эллипс 13" cx="27" cy="27" r="27" transform="translate(1589 5618)" fill="#7d519e"/>
    <g id="Группа_масок_95" data-name="Группа масок 95" transform="translate(1597.663 5626.664)" clip-path="url(#clip-path)">
      <g id="viber_1_" data-name="viber (1)" transform="translate(2.002 -0.112)">
        <path id="Контур_243" data-name="Контур 243" d="M34.871,21.227c1.094-9.207-.525-15.019-3.446-17.648l0,0c-4.714-4.489-20.634-5.154-26.274.2C2.62,6.4,1.728,10.244,1.63,15s-.214,13.681,8.1,16.1h.008l-.008,3.7s-.057,1.5.9,1.8c1.094.354,1.589-.341,4.991-4.4a31.129,31.129,0,0,0,10.554-.8c1.149-.385,7.648-1.245,8.7-10.164ZM16.178,29.593s-3.6,4.489-4.72,5.655c-.367.379-.768.344-.762-.408,0-.493.027-6.135.027-6.135-7.047-2.019-6.631-9.614-6.555-13.588s.8-7.23,2.948-9.422c4.948-4.639,18.9-3.6,22.461-.26,4.347,3.854,2.8,14.742,2.809,15.114-.894,7.445-6.161,7.917-7.129,8.24a28.719,28.719,0,0,1-9.08.8Z" transform="translate(-1.608 0.015)" fill="#fff"/>
        <path id="Контур_244" data-name="Контур 244" d="M14.351,5.009a.463.463,0,0,0,0,.924c4.563.035,8.321,3.215,8.362,9.049a.447.447,0,1,0,.894-.008h0c-.049-6.286-4.152-9.931-9.254-9.966Z" transform="translate(2.211 1.575)" fill="#fff"/>
        <path id="Контур_245" data-name="Контур 245" d="M20.167,13.446a.447.447,0,1,0,.894.021,6.187,6.187,0,0,0-6.078-6.622.464.464,0,0,0-.063.924,5.274,5.274,0,0,1,5.247,5.676Z" transform="translate(2.397 2.145)" fill="#fff"/>
        <path id="Контур_246" data-name="Контур 246" d="M21.455,17.707a1.411,1.411,0,0,0-1.841.264l-.664.86a1.188,1.188,0,0,1-.968.379c-4.6-1.217-5.835-6.035-5.835-6.035a1.284,1.284,0,0,1,.365-1l.831-.687a1.53,1.53,0,0,0,.255-1.9,19.852,19.852,0,0,0-2.276-3.287,1.23,1.23,0,0,0-1.653-.28H9.654c-1.321.773-2.768,2.22-2.305,3.709.79,1.57,2.241,6.576,6.866,10.358a26.4,26.4,0,0,0,7.074,4.045l.014.021c1.439.48,2.838-1.023,3.585-2.385v-.011a1.31,1.31,0,0,0-.263-1.689,18.009,18.009,0,0,0-3.171-2.355Z" transform="translate(0.147 1.826)" fill="#fff"/>
        <path id="Контур_247" data-name="Контур 247" d="M15.45,9.666c1.468.086,2.18.852,2.256,2.427a.448.448,0,1,0,.894-.043c-.1-2.056-1.17-3.2-3.1-3.309a.463.463,0,0,0-.049.924Z" transform="translate(2.559 2.734)" fill="#fff"/>
      </g>
    </g>
  </g>
</svg>
