<svg xmlns="http://www.w3.org/2000/svg" xmlns:xlink="http://www.w3.org/1999/xlink" width="53" height="54" viewBox="0 0 53 54">
  <defs>
    <clipPath id="clip-path">
      <rect id="Прямоугольник_786" data-name="Прямоугольник 786" width="35" height="36" transform="translate(-0.04 0.336)" fill="#fff" stroke="#707070" stroke-width="1"/>
    </clipPath>
  </defs>
  <g id="Сгруппировать_771" data-name="Сгруппировать 771" transform="translate(-1650 -5618)">
    <ellipse id="Эллипс_14" data-name="Эллипс 14" cx="26.5" cy="27" rx="26.5" ry="27" transform="translate(1650 5618)" fill="#39aa44"/>
    <g id="Группа_масок_93" data-name="Группа масок 93" transform="translate(1660.039 5626.664)" clip-path="url(#clip-path)">
      <path id="whatsapp" d="M29.884,5.106a17.415,17.415,0,0,0-27.4,21.008L.011,35.136l9.23-2.421a17.392,17.392,0,0,0,8.32,2.119h.007A17.418,17.418,0,0,0,29.884,5.106ZM17.568,31.894h-.006A14.453,14.453,0,0,1,10.2,29.877l-.528-.314L4.191,31l1.462-5.34-.344-.548a14.471,14.471,0,1,1,12.259,6.782Zm7.938-10.838c-.435-.218-2.574-1.27-2.973-1.415s-.689-.217-.979.218-1.124,1.415-1.378,1.706-.507.327-.943.109a11.882,11.882,0,0,1-3.5-2.159,13.123,13.123,0,0,1-2.42-3.014c-.253-.436,0-.649.191-.888a12.306,12.306,0,0,0,1.087-1.488.8.8,0,0,0-.036-.762c-.109-.218-.979-2.359-1.341-3.23-.353-.848-.712-.733-.979-.747s-.544-.015-.834-.015a1.6,1.6,0,0,0-1.16.544,4.879,4.879,0,0,0-1.522,3.629,8.463,8.463,0,0,0,1.776,4.5c.217.29,3.068,4.685,7.432,6.569a24.9,24.9,0,0,0,2.48.917,5.964,5.964,0,0,0,2.74.172,4.482,4.482,0,0,0,2.937-2.069,3.635,3.635,0,0,0,.253-2.069c-.109-.181-.4-.29-.834-.508Zm0,0" transform="translate(-0.172 0.452)" fill="#fff" fill-rule="evenodd"/>
    </g>
  </g>
</svg>
