<svg xmlns="http://www.w3.org/2000/svg" xmlns:xlink="http://www.w3.org/1999/xlink" width="18.081" height="18.081" viewBox="0 0 18.081 18.081">
  <defs>
    <clipPath id="clip-path">
      <rect id="Прямоугольник_709" data-name="Прямоугольник 709" width="18.081" height="18.081" transform="translate(1887 3275)" stroke="#707070" stroke-width="1"/>
    </clipPath>
  </defs>
  <g id="Группа_масок_69" data-name="Группа масок 69" transform="translate(-1887 -3275)" clip-path="url(#clip-path)">
    <g id="call_2_" data-name="call (2)" transform="translate(1887 3275)">
      <g id="Сгруппировать_616" data-name="Сгруппировать 616">
        <path id="Контур_135" data-name="Контур 135" d="M16.63,11.868a10.266,10.266,0,0,1-3.224-.514,1.474,1.474,0,0,0-1.433.3L9.94,13.191a11.235,11.235,0,0,1-5.051-5.05l1.49-1.98a1.461,1.461,0,0,0,.36-1.481,10.281,10.281,0,0,1-.515-3.229A1.452,1.452,0,0,0,4.771,0H1.451A1.453,1.453,0,0,0,0,1.451a16.649,16.649,0,0,0,16.63,16.63,1.453,1.453,0,0,0,1.451-1.451V13.319A1.453,1.453,0,0,0,16.63,11.868Z"/>
      </g>
    </g>
  </g>
</svg>
