<svg id="Слой_1_копия_" data-name="Слой 1 (копия)" xmlns="http://www.w3.org/2000/svg" xmlns:xlink="http://www.w3.org/1999/xlink" width="335.076" height="91.157" viewBox="0 0 335.076 91.157">
  <defs>
    <linearGradient id="linear-gradient" y1="0.5" x2="1" y2="0.5" gradientUnits="objectBoundingBox">
      <stop offset="0" stop-color="#6bdae3"/>
      <stop offset="0.01" stop-color="#6ad4e5"/>
      <stop offset="0.09" stop-color="#67b2ee"/>
      <stop offset="0.18" stop-color="#6497f6"/>
      <stop offset="0.26" stop-color="#6284fb"/>
      <stop offset="0.35" stop-color="#6179fe"/>
      <stop offset="0.44" stop-color="#6175ff"/>
      <stop offset="0.6" stop-color="#8273d9"/>
      <stop offset="0.77" stop-color="#9c72ba"/>
      <stop offset="0.9" stop-color="#ac71a7"/>
      <stop offset="1" stop-color="#b271a0"/>
    </linearGradient>
    <linearGradient id="linear-gradient-2" x1="0" y1="0.5" x2="5.322" y2="0.5" xlink:href="#linear-gradient"/>
    <linearGradient id="linear-gradient-3" x1="-3.685" y1="0.5" x2="1.921" y2="0.5" xlink:href="#linear-gradient"/>
    <linearGradient id="linear-gradient-4" x1="-5.294" y1="0.5" x2="9.252" y2="0.5" xlink:href="#linear-gradient"/>
    <linearGradient id="linear-gradient-5" x1="0.967" y1="0.5" x2="-0.578" y2="0.5" xlink:href="#linear-gradient"/>
    <linearGradient id="linear-gradient-6" x1="1.024" y1="0.501" x2="0.003" y2="0.501" xlink:href="#linear-gradient"/>
    <linearGradient id="linear-gradient-7" x1="0.961" y1="0.5" x2="-0.081" y2="0.5" xlink:href="#linear-gradient"/>
    <linearGradient id="linear-gradient-8" x1="2.657" y1="1.114" x2="0.352" y2="1.114" xlink:href="#linear-gradient"/>
  </defs>
  <path id="Контур_1057" data-name="Контур 1057" d="M87.866,151.91h-9.3V144.7h25.323v7.21H94.6v31.018H87.866Z" transform="translate(-78.57 -121.796)"/>
  <path id="Контур_1058" data-name="Контур 1058" d="M173.252,203.217h-16.9a5.257,5.257,0,0,0,2.159,3.278,7.144,7.144,0,0,0,4.235,1.205,8.566,8.566,0,0,0,3.1-.52,7.5,7.5,0,0,0,2.51-1.639l3.443,3.736q-3.154,3.612-9.217,3.612a14.574,14.574,0,0,1-6.683-1.474,10.8,10.8,0,0,1-4.476-4.09,11.262,11.262,0,0,1-1.577-5.936,11.417,11.417,0,0,1,1.556-5.915,10.907,10.907,0,0,1,4.276-4.111A13.238,13.238,0,0,1,167.7,191.3a10.329,10.329,0,0,1,4.173,4.049,12.075,12.075,0,0,1,1.515,6.125Q173.376,201.6,173.252,203.217ZM158.1,196.035a5.3,5.3,0,0,0-1.825,3.405H167.3a5.357,5.357,0,0,0-1.828-3.384,5.461,5.461,0,0,0-3.653-1.267,5.578,5.578,0,0,0-3.715,1.246Z" transform="translate(-125.306 -151.427)"/>
  <path id="Контур_1059" data-name="Контур 1059" d="M231.948,211.409a11.017,11.017,0,0,1-4.441-4.09,11.823,11.823,0,0,1,0-11.871,11.018,11.018,0,0,1,4.441-4.09,13.734,13.734,0,0,1,6.414-1.474,12.433,12.433,0,0,1,6.17,1.477,8.745,8.745,0,0,1,3.839,4.214l-5.023,2.7a5.489,5.489,0,0,0-5.023-3.071,5.684,5.684,0,0,0-4.194,1.66,7.008,7.008,0,0,0,.01,9.045,5.681,5.681,0,0,0,4.194,1.663,5.432,5.432,0,0,0,5.023-3.071l5.023,2.754a8.918,8.918,0,0,1-3.849,4.135,12.291,12.291,0,0,1-6.166,1.494A13.727,13.727,0,0,1,231.948,211.409Z" transform="translate(-175.181 -151.421)"/>
  <path id="Контур_1060" data-name="Контур 1060" d="M321.779,176.888q2.551,2.489,2.551,7.389v12.787h-6.476V185.276a5.816,5.816,0,0,0-1.164-3.963A4.266,4.266,0,0,0,313.327,180a5.146,5.146,0,0,0-3.9,1.515,6.293,6.293,0,0,0-1.453,4.5v11.042H301.5v-30.8h6.476v10.794a8.608,8.608,0,0,1,3.1-1.973,11.266,11.266,0,0,1,3.987-.689A9.223,9.223,0,0,1,321.779,176.888Z" transform="translate(-224.746 -135.933)"/>
  <path id="Контур_1061" data-name="Контур 1061" d="M556.728,211.409a11.017,11.017,0,0,1-4.441-4.09,11.823,11.823,0,0,1,0-11.871,11.018,11.018,0,0,1,4.441-4.09,13.734,13.734,0,0,1,6.414-1.474,12.432,12.432,0,0,1,6.166,1.474,8.745,8.745,0,0,1,3.839,4.214l-5.023,2.7A5.489,5.489,0,0,0,563.1,195.2a5.684,5.684,0,0,0-4.194,1.66,7,7,0,0,0,0,9.048,5.681,5.681,0,0,0,4.194,1.66,5.433,5.433,0,0,0,5.023-3.071l5.023,2.754a8.917,8.917,0,0,1-3.839,4.152,12.292,12.292,0,0,1-6.166,1.494A13.727,13.727,0,0,1,556.728,211.409Z" transform="translate(-388.14 -151.421)"/>
  <path id="Контур_1062" data-name="Контур 1062" d="M627.056,211.414a10.949,10.949,0,0,1-4.379-4.09,11.958,11.958,0,0,1,0-11.871,10.956,10.956,0,0,1,4.379-4.09,14.288,14.288,0,0,1,12.643,0,10.993,10.993,0,0,1,4.359,4.09,11.957,11.957,0,0,1,0,11.871,10.99,10.99,0,0,1-4.359,4.09A14.288,14.288,0,0,1,627.056,211.414Zm10.418-5.509a7.146,7.146,0,0,0,0-9.007,5.4,5.4,0,0,0-4.09-1.68,5.461,5.461,0,0,0-4.111,1.68,7.075,7.075,0,0,0,0,9.007,5.461,5.461,0,0,0,4.111,1.68,5.4,5.4,0,0,0,4.094-1.69Z" transform="translate(-434.308 -151.426)"/>
  <path id="Контур_1063" data-name="Контур 1063" d="M740.166,192.367q2.469,2.469,2.469,7.409v12.787h-6.476V200.774a6.056,6.056,0,0,0-1.1-3.963,3.862,3.862,0,0,0-3.133-1.308,4.62,4.62,0,0,0-3.612,1.474,6.4,6.4,0,0,0-1.346,4.376V212.56H720.51V200.774q0-5.271-4.235-5.271a4.572,4.572,0,0,0-3.57,1.474,6.35,6.35,0,0,0-1.329,4.379v11.207H704.9V190.228h6.2V192.8a8.177,8.177,0,0,1,3.05-2.159,10.264,10.264,0,0,1,3.963-.747,9.6,9.6,0,0,1,4.276.933,7.574,7.574,0,0,1,3.071,2.72,9.162,9.162,0,0,1,3.467-2.7,10.939,10.939,0,0,1,4.586-.954A9,9,0,0,1,740.166,192.367Z" transform="translate(-489.257 -151.432)"/>
  <path id="Контур_1064" data-name="Контур 1064" d="M833.424,174.606h5.729v4.982h-5.564v16.871h-6.476V179.588H823.67v-4.982h3.443v-.995a8.146,8.146,0,0,1,2.262-6.06,8.664,8.664,0,0,1,6.373-2.241,11.886,11.886,0,0,1,2.754.31,6.718,6.718,0,0,1,2.179.892l-1.7,4.689a4.435,4.435,0,0,0-2.617-.788q-2.947,0-2.947,3.236Z" transform="translate(-567.135 -135.31)"/>
  <path id="Контур_1065" data-name="Контур 1065" d="M878.362,211.421A10.949,10.949,0,0,1,874,207.334a11.957,11.957,0,0,1,0-11.871,10.955,10.955,0,0,1,4.379-4.09,14.288,14.288,0,0,1,12.642,0,10.994,10.994,0,0,1,4.359,4.09,11.957,11.957,0,0,1,0,11.871,10.99,10.99,0,0,1-4.359,4.09,14.288,14.288,0,0,1-12.643,0Zm10.418-5.509a7.146,7.146,0,0,0,0-9.007,5.4,5.4,0,0,0-4.09-1.68,5.461,5.461,0,0,0-4.111,1.68,7.075,7.075,0,0,0,0,9.007,5.461,5.461,0,0,0,4.111,1.68,5.4,5.4,0,0,0,4.094-1.69Z" transform="translate(-599.099 -151.432)"/>
  <path id="Контур_1066" data-name="Контур 1066" d="M965.5,190.726a11.63,11.63,0,0,1,4.545-.83v5.977q-1.081-.083-1.453-.083a5.936,5.936,0,0,0-4.359,1.556,6.279,6.279,0,0,0-1.573,4.669v10.546h-6.48V190.226h6.2v2.947a7.2,7.2,0,0,1,3.123-2.448Z" transform="translate(-654.022 -151.429)"/>
  <path id="Контур_1067" data-name="Контур 1067" d="M1019.3,202.7a6.648,6.648,0,0,1-2.345,1.057,11.878,11.878,0,0,1-2.927.344,8.7,8.7,0,0,1-6.166-2.035,7.784,7.784,0,0,1-2.179-5.977v-9.162h-3.443V181.95h3.443v-5.44h6.476v5.44h5.564v4.982h-5.564v9.093a3.048,3.048,0,0,0,.727,2.179,2.689,2.689,0,0,0,2.066.768,4.162,4.162,0,0,0,2.617-.83Z" transform="translate(-684.223 -142.654)"/>
  <path id="Контур_1068" data-name="Контур 1068" d="M438.146,149.792l-2.675.757a37.071,37.071,0,0,1-11.3,1.377,38.218,38.218,0,0,1-11.913-2.331l4.727-2.73c1.146-.664,1.746-1.777,1.336-2.489l-.279-.482c-.41-.713-1.673-.751-2.823-.09l-.781.451a15.306,15.306,0,0,0,.454-2.093c.661-4.565-.606-11.259-6.345-15.1A15.406,15.406,0,0,0,396.882,125l-2.6.551a.819.819,0,0,0-.375,1.412l1.987,1.766a30.26,30.26,0,0,1,9.781,17.625l-4.393-2.537c-1.147-.664-2.41-.623-2.823.09l-.279.482c-.41.713.186,1.825,1.336,2.489l1.932,1.116a16.479,16.479,0,0,0-3.6,1.184c-4.359,2.007-9.75,6.886-10.6,13.975a14.75,14.75,0,0,0,1.095,7.65,15.25,15.25,0,0,0,2.389,3.866l1.8,2.1a.727.727,0,0,0,1.257-.3l.689-2.682a37.059,37.059,0,0,1,4.455-10.477,38.216,38.216,0,0,1,8.1-9.255v4.775c0,1.326.664,2.41,1.487,2.41h.554c.823,0,1.487-1.074,1.487-2.41v-.485a16.654,16.654,0,0,0,1.921,1.591c3.918,2.754,10.825,5.01,17.4,2.193a15.032,15.032,0,0,0,8.222-8.79l.923-2.624a.72.72,0,0,0-.878-.923Zm-33.232-19.835a9.7,9.7,0,0,1,1.233.689,9.985,9.985,0,0,1,3.608,4.445,12.306,12.306,0,0,1,.864,6.462v.034a.816.816,0,0,1-1.591.1,34.386,34.386,0,0,0-5.109-10.5.816.816,0,0,1,1-1.229Zm-4.441,24.294a42.247,42.247,0,0,0-5.233,6.772,41.781,41.781,0,0,0-2.41,4.445.726.726,0,0,1-1.377-.282,10.8,10.8,0,0,1,.076-1.529c.6-4.992,4.51-8.9,8.119-10.563a.723.723,0,0,1,.823,1.157Zm29.083,3.181a10.8,10.8,0,0,1-1.377.713c-4.624,1.976-9.964.547-13.207-1.749l-.028-.021a.72.72,0,0,1,.589-1.281,42.261,42.261,0,0,0,8.511,1.153,41.812,41.812,0,0,0,5.075-.145.72.72,0,0,1,.437,1.332Z" transform="translate(-280.892 -108.64)" fill="url(#linear-gradient)"/>
  <path id="Контур_1069" data-name="Контур 1069" d="M390.4,165.385c1.147.665,2.41.623,2.823-.09l.279-.482c.41-.713-.186-1.825-1.336-2.489l-4.979-2.875c-1.147-.664-2.41-.623-2.823.09l-.279.482c-.41.713.186,1.825,1.336,2.489Z" transform="translate(-278.812 -131.157)" fill="url(#linear-gradient-2)"/>
  <path id="Контур_1070" data-name="Контур 1070" d="M485.683,165.3c.41.713,1.673.751,2.823.09l4.979-2.875c1.146-.665,1.746-1.777,1.336-2.489l-.279-.482c-.41-.713-1.673-.751-2.823-.09l-4.979,2.875c-1.146.664-1.746,1.777-1.336,2.489Z" transform="translate(-345.248 -131.16)" fill="url(#linear-gradient-3)"/>
  <path id="Контур_1071" data-name="Контур 1071" d="M446.925,243h-.558c-.823,0-1.487,1.074-1.487,2.41v5.75c0,1.326.664,2.41,1.487,2.41h.554c.823,0,1.487-1.074,1.487-2.41v-5.75C448.412,244.088,447.745,243,446.925,243Z" transform="translate(-318.761 -186.251)" fill="url(#linear-gradient-4)"/>
  <path id="Контур_1072" data-name="Контур 1072" d="M245.813,290.293a50.45,50.45,0,0,1-24.063-6.249,1.811,1.811,0,0,1-.689-2.52h0a1.808,1.808,0,0,1,2.41-.654,46.4,46.4,0,0,0,26.587,5.6,45.771,45.771,0,0,0,20.2-7.006,1.8,1.8,0,0,1,2.451.5h0a1.811,1.811,0,0,1-.52,2.558,49.392,49.392,0,0,1-21.766,7.54A45,45,0,0,1,245.813,290.293Z" transform="translate(-171.833 -209.978)" fill="url(#linear-gradient-5)"/>
  <path id="Контур_1073" data-name="Контур 1073" d="M175.049,299.581a66.121,66.121,0,0,1-43.323-19.467,1.808,1.808,0,0,1,.028-2.589h0a1.808,1.808,0,0,1,2.524.024,65.017,65.017,0,0,0,22.9,14.691,68.11,68.11,0,0,0,35.876,2.606,69.17,69.17,0,0,0,23.14-9.041,1.808,1.808,0,0,1,2.465.551h0a1.811,1.811,0,0,1-.565,2.527,72.757,72.757,0,0,1-43.037,10.673Z" transform="translate(-113.075 -208.561)" fill="url(#linear-gradient-6)"/>
  <path id="Контур_1074" data-name="Контур 1074" d="M569.336,131.927h0a2.066,2.066,0,0,1,1.033-2.754A182.515,182.515,0,0,1,627,113.841a185.132,185.132,0,0,1,77.467,8.728,2.066,2.066,0,0,1,1.3,2.644h0a2.066,2.066,0,0,1-2.606,1.277,180.965,180.965,0,0,0-75.735-8.539,178.393,178.393,0,0,0-55.366,14.987A2.066,2.066,0,0,1,569.336,131.927Z" transform="translate(-400.242 -100.956)" fill="url(#linear-gradient-7)"/>
  <path id="Контур_1075" data-name="Контур 1075" d="M551.114,101.255h0a2.066,2.066,0,0,1,.413-2.923,103.814,103.814,0,0,1,16.767-10.043,105.162,105.162,0,0,1,41.612-10.112,2.066,2.066,0,0,1,2.145,2.028h0a2.066,2.066,0,0,1-1.99,2.1,101.058,101.058,0,0,0-39.987,9.716,99.665,99.665,0,0,0-16.1,9.64A2.066,2.066,0,0,1,551.114,101.255Z" transform="translate(-388.138 -78.176)" fill="url(#linear-gradient-8)"/>
</svg>
