<svg xmlns="http://www.w3.org/2000/svg" width="93.397" height="93.399" viewBox="0 0 93.397 93.399">
  <g id="surface1" transform="translate(-0.03)">
    <path id="Контур_146" data-name="Контур 146" d="M12.6,16.883a1.668,1.668,0,0,1,.772.437L37.153,41.1l4.3-4.3L17.675,13.018a1.669,1.669,0,0,1-.438-.774l-1.5-5.966L5.819.605.96,5.464l5.674,9.929Zm0,0" transform="translate(-0.296 -0.193)" fill="#6b92b0"/>
    <path id="Контур_147" data-name="Контур 147" d="M33.451,70.936,71.188,33.2a1.665,1.665,0,0,1,1.58-.439A16.552,16.552,0,0,0,93.427,16.64c0-.312-.009-.627-.03-.945l-8.777,8.776a1.663,1.663,0,0,1-1.7.4l-9.983-3.328a1.661,1.661,0,0,1-1.053-1.051l-3.327-9.983a1.661,1.661,0,0,1,.4-1.7L77.734.032A16.557,16.557,0,0,0,60.667,20.663a1.663,1.663,0,0,1-.437,1.581L22.494,59.979a1.679,1.679,0,0,1-1.581.438,16.392,16.392,0,0,0-4.022-.518A16.75,16.75,0,1,0,33.012,72.516,1.666,1.666,0,0,1,33.451,70.936ZM20.941,83.193h-8.1L8.849,76.538l3.994-6.656h8.1l3.993,6.656Zm6.421-19.478,36.6-36.6,2.352,2.353-36.6,36.6Zm0,0" transform="translate(0)" fill="#6b92b0"/>
    <path id="Контур_148" data-name="Контур 148" d="M117.016,129.661a10.089,10.089,0,0,0,12.994-12.994Zm0,0" transform="translate(-37.232 -37.13)" fill="#6b92b0"/>
    <path id="Контур_149" data-name="Контур 149" d="M112.643,98,93.955,79.308A5.193,5.193,0,0,1,86.635,72l-2.647-2.65L69.7,83.634,72.366,86.3a5.193,5.193,0,0,1,7.32,7.311l18.671,18.681c.2.2.419.392.636.576L113.22,98.638C113.036,98.421,112.847,98.206,112.643,98Zm-9.865,6.773L86.14,88.138l2.352-2.353,16.639,16.639Zm0,0" transform="translate(-22.174 -22.07)" fill="#6b92b0"/>
  </g>
</svg>
