<svg xmlns="http://www.w3.org/2000/svg" width="105" height="60.192" viewBox="0 0 105 60.192">
  <g id="ukraine" transform="translate(0.001 -4.681)">
    <path id="Контур_240" data-name="Контур 240" d="M103.249,25.814c-5.813-1.837-11.67-5.584-17.359-5.3C78.1,20.9,75.028,14.842,71.3,11.259c-2.641-2.522-2.44-7.775-8.344-6.33C58.588,6,52.689,5.608,50.206,8.34c-3.1,3.407-5.555,3.019-8.966,2.732A102.9,102.9,0,0,1,24.813,8.536a21.363,21.363,0,0,0-12.947.33C8.895,10.015,6.282,11.01,9.105,14.89c1.708,2.33,1.493,4.306-1.522,5.842A12.7,12.7,0,0,0,3.421,24.8c-4.8,6.7-4.536,13.12.713,13.565,7.1.6,14.34,3.536,21.526-1.655,4.89-3.541,11.77-.249,14.718,5.388,1.2,2.292,2.8,4.368,4.517,6.976-7.282-.694-7.115,4.971-9.469,8.675,7.115,2.3,10.388-2.459,13.9-6.407,1.579-1.766,3.435-3.77,5.325-1.833C57.6,52.541,61.244,52,64.765,52.627A2.333,2.333,0,0,1,64,54.139c-1.2,1.1-3.34,1.268-3.392,3.278,1.636,1.421,5.1,1.062,5.225,4.01a5.567,5.567,0,0,1-.172,1.488c-.325,1.368,1.785,2.3,2.493,1.842,4.9-3.1,10.766-3.947,15.569-7.8a13.479,13.479,0,0,0-2.861-.167c-2.66.373-5.086.11-5.933-2.818-.837-2.895,2.694-4,3.632-4.177,8.191-1.593,14.588-6.966,22.115-9.818,5.7-2.172.708-7.766,3.89-10.737A2.174,2.174,0,0,0,103.249,25.814Z" transform="translate(0 0)" fill="#6b92b0"/>
  </g>
</svg>
