<svg xmlns="http://www.w3.org/2000/svg" width="89" height="61" viewBox="0 0 89 61">
  <path id="Объединение_8" data-name="Объединение 8" d="M-10141.585-291a5.239,5.239,0,0,1-5.415-5.034v-50.932a5.239,5.239,0,0,1,5.415-5.034h72.193a5.24,5.24,0,0,1,5.416,5.034v11.359h-25.914a15.362,15.362,0,0,0-5.615,1.057,14.426,14.426,0,0,0-4.576,2.87,13.289,13.289,0,0,0-3.087,4.253,12.438,12.438,0,0,0-1.138,5.218v1.418a12.575,12.575,0,0,0,1.138,5.219,13.289,13.289,0,0,0,3.087,4.253,14.424,14.424,0,0,0,4.576,2.869,15.187,15.187,0,0,0,5.615,1.057h25.914v11.359a5.24,5.24,0,0,1-5.416,5.034Zm77.609-21.427h-25.914c-4.975,0-9-3.741-9-8.364v-1.418c0-4.622,4.025-8.364,9-8.364h27.827A3.921,3.921,0,0,1-10058-326.8v10.6a3.921,3.921,0,0,1-4.062,3.775Zm-29.229-9.077a4.622,4.622,0,0,0,4.785,4.446,4.62,4.62,0,0,0,4.783-4.446,4.621,4.621,0,0,0-4.783-4.446A4.622,4.622,0,0,0-10093.2-321.505Z" transform="translate(10147 352.001)" fill="#6b92b0"/>
</svg>
